<?xml version="1.0" standalone="no"?><svg xmlns="http://www.w3.org/2000/svg" viewBox="0 0 1440 320"><path fill="#f45858" fill-opacity="1" d="M0,128L16,122.7C32,117,64,107,96,112C128,117,160,139,192,154.7C224,171,256,181,288,197.3C320,213,352,235,384,250.7C416,267,448,277,480,240C512,203,544,117,576,74.7C608,32,640,32,672,69.3C704,107,736,181,768,213.3C800,245,832,235,864,224C896,213,928,203,960,170.7C992,139,1024,85,1056,85.3C1088,85,1120,139,1152,149.3C1184,160,1216,128,1248,117.3C1280,107,1312,117,1344,144C1376,171,1408,213,1424,234.7L1440,256L1440,320L1424,320C1408,320,1376,320,1344,320C1312,320,1280,320,1248,320C1216,320,1184,320,1152,320C1120,320,1088,320,1056,320C1024,320,992,320,960,320C928,320,896,320,864,320C832,320,800,320,768,320C736,320,704,320,672,320C640,320,608,320,576,320C544,320,512,320,480,320C448,320,416,320,384,320C352,320,320,320,288,320C256,320,224,320,192,320C160,320,128,320,96,320C64,320,32,320,16,320L0,320Z"></path></svg>